HIERARCHY
ROOT HipCenter
{
    OFFSET 0.0 0.0 -0.0
    CHANNELS 6 Xposition Yposition Zposition Zrotation Xrotation Yrotation
    JOINT Spine
    {
        OFFSET 0.0 10.53200626373291 0.0
        CHANNELS 3 Zrotation Xrotation Yrotation
        JOINT ShoulderCenter
        {
            OFFSET 0.0 31.102407455444336 0.0
            CHANNELS 3 Zrotation Xrotation Yrotation
            JOINT LeftShoulder
            {
                OFFSET 19.383438110351562 0.0 0.0
                CHANNELS 3 Zrotation Xrotation Yrotation
                JOINT LeftElbow
                {
                    OFFSET 26.1624698638916 0.0 0.0
                    CHANNELS 3 Zrotation Xrotation Yrotation
                    JOINT LeftWrist
                    {
                        OFFSET 30.865203857421875 0.0 0.0
                        CHANNELS 3 Zrotation Xrotation Yrotation
                        JOINT LeftHand
                        {
                            OFFSET 3.1336443424224854 0.0 0.0
                            CHANNELS 3 Zrotation Xrotation Yrotation
                            End Site
                            {
                                OFFSET 1.25345778465271 0.0 0.0
                            }
                        }
                    }
                }
            }
            JOINT RightShoulder
            {
                OFFSET -19.383438110351562 0.0 0.0
                CHANNELS 3 Zrotation Xrotation Yrotation
                JOINT RightElbow
                {
                    OFFSET -26.1624698638916 0.0 0.0
                    CHANNELS 3 Zrotation Xrotation Yrotation
                    JOINT RightWrist
                    {
                        OFFSET -30.865203857421875 0.0 0.0
                        CHANNELS 3 Zrotation Xrotation Yrotation
                        JOINT RightHand
                        {
                            OFFSET -3.1336443424224854 0.0 0.0
                            CHANNELS 3 Zrotation Xrotation Yrotation
                            End Site
                            {
                                OFFSET -1.25345778465271 0.0 0.0
                            }
                        }
                    }
                }
            }
            End Site
            {
                OFFSET 0.0 12.440961837768555 0.0
            }
        }
    }
    JOINT LeftHip
    {
        OFFSET 14.157835006713867 0.0 0.0
        CHANNELS 3 Zrotation Xrotation Yrotation
        JOINT LeftKnee
        {
            OFFSET 0.0 -41.68223190307617 0.0
            CHANNELS 3 Zrotation Xrotation Yrotation
            JOINT LeftAnkle
            {
                OFFSET 0.0 -43.66859817504883 0.0
                CHANNELS 3 Zrotation Xrotation Yrotation
                JOINT LeftFoot
                {
                    OFFSET 0.0 -11.319293022155762 0.0
                    CHANNELS 3 Zrotation Xrotation Yrotation
                    End Site
                    {
                        OFFSET 0.0 0.0 4.527717590332031
                    }
                }
            }
        }
    }
    JOINT RightHip
    {
        OFFSET -14.157835006713867 0.0 0.0
        CHANNELS 3 Zrotation Xrotation Yrotation
        JOINT RightKnee
        {
            OFFSET 0.0 -41.68223190307617 0.0
            CHANNELS 3 Zrotation Xrotation Yrotation
            JOINT RightAnkle
            {
                OFFSET 0.0 -43.66859817504883 0.0
                CHANNELS 3 Zrotation Xrotation Yrotation
                JOINT RightFoot
                {
                    OFFSET 0.0 -11.319293022155762 0.0
                    CHANNELS 3 Zrotation Xrotation Yrotation
                    End Site
                    {
                        OFFSET 0.0 0.0 4.527717590332031
                    }
                }
            }
        }
    }
}
MOTION
Frames: 10
Frame Time: 0.03333333333333333
-3.799999952316284 5.5 33.79999923706055 -1.6365767772689122 -1.635905813111497 -1.5968750499538031 0.04119830044458082 -2.421531317253127 0.05892107566138783 -1.2021584770299515e-07 2.121820111814898e-07 3.153791460356585 90.00433962903287 -2.1841884931164377 165.46934199406223 -3.2952110706018867e-06 -7.278494885064912e-07 38.123126728767865 2.6978326975490464e-07 18.650234850091962 30.66496611702854 4.770832022195275e-15 6.3611093629270335e-15 -2.648343778830095e-31 -90.58103792257111 6.394270259378849 -161.88117163990034 -1.4413336406543213e-08 9.033647805786492e-07 -40.46805286475278 -179.99999028924844 -68.70504261555031 150.89596317295477 -1.7655625192200634e-31 6.3611093629270335e-15 3.1805546814635168e-15 6.239276865396427 -0.9708550271995018 -22.496031020937068 -5.427826512226491 21.44528108071801 -23.90241610542769 93.23978488849369 -36.87704246293259 152.55675651980926 0.0 0.0 3.1805546814635168e-15 -21.536886208741013 4.077336029283809 43.05903270756381 -0.06603356261556821 -0.11690891252137056 -0.2445207618584037 -63.447653753468764 -45.16162659290911 -137.6644965219756 1.5902773407317588e-15 -5.565970692561156e-15 1.5902773407317588e-15
-3.799999952316284 5.5 33.79999923706055 -1.6365767772689122 -1.635905813111497 -1.5968750499538031 0.04119830044458082 -2.421531317253127 0.05892107566138783 -4.724066582719887e-08 -1.223433525764817e-07 3.158306550258465 90.00606282971603 -2.2059312542653373 165.5078250675887 -1.7439156291021183e-06 -3.2077283324842666e-06 38.17248873615173 2.4495710480041117e-06 18.67268919303796 30.58009907793611 -7.95138670365879e-15 6.361109362927033e-15 4.413906298050159e-31 -90.71777693335274 6.030693442107963 -161.6667706389936 3.9538820265868915e-06 -1.733317006639371e-06 -40.83059689155992 -179.9999985988578 -70.01446972916558 150.08590752490153 0.0 1.5902773407317582e-15 0.0 6.239276865396427 -0.9708550271995018 -22.496031020937068 -5.427826512226491 21.44528108071801 -23.90241610542769 93.23978488849369 -36.87704246293259 152.55675651980926 0.0 0.0 3.1805546814635168e-15 -21.536886208741013 4.077336029283809 43.05903270756381 -0.06603356261556821 -0.11690891252137056 -0.2445207618584037 -63.447653753468764 -45.16162659290911 -137.6644965219756 1.5902773407317588e-15 -5.565970692561156e-15 1.5902773407317588e-15
-3.799999952316284 5.5 33.79999923706055 -1.6365767772689122 -1.635905813111497 -1.5968750499538031 0.04119830044458082 -2.421531317253127 0.05892107566138783 -4.505362180346776e-08 6.480051252793548e-08 3.1687534594418203 90.00606343033198 -2.2163782158919263 165.5078265020051 -1.7439156291021183e-06 -3.2077283324842666e-06 38.17248873615173 2.4495710480041117e-06 18.67268919303796 30.58009907793611 -7.95138670365879e-15 6.361109362927033e-15 4.413906298050159e-31 -90.71301172821633 6.052610579665896 -161.72205434327364 -3.072324965588143e-06 -9.89665598822349e-07 -40.77568992161726 -179.99999848514096 -70.02687831927797 150.08590048373233 0.0 1.5902773407317582e-15 0.0 6.239276865396427 -0.9708550271995018 -22.496031020937068 -5.427826512226491 21.44528108071801 -23.90241610542769 93.23978488849369 -36.87704246293259 152.55675651980926 0.0 0.0 3.1805546814635168e-15 -21.531911426182564 3.941200903288027 42.8434132785737 0.023338661095076332 -0.013964660830609436 -0.02920869979202372 -63.447653753468764 -45.16162659290911 -137.6644965219756 1.5902773407317588e-15 -5.565970692561156e-15 1.5902773407317588e-15
-3.799999952316284 5.5 33.79999923706055 -1.6365767772689122 -1.635905813111497 -1.5968750499538031 0.04119830044458082 -2.421531317253127 0.05892107566138783 -7.03924994030371e-08 3.937545589030058e-07 3.3073575983834145 90.00571171102051 -2.3409026600676377 165.67852930796695 -2.327633314354716e-06 -8.055016051502886e-07 37.91400637420641 -7.394179764797172e-07 21.436128657067716 31.08416663233564 4.7708320221952736e-15 -6.361109362927033e-15 -6.361109362927033e-15 -90.71797644163546 6.179732773653007 -161.6648929976474 3.9538820265868915e-06 -1.733317006639371e-06 -40.83059689155992 -179.9999985988578 -70.01446972916558 150.08590752490153 0.0 1.5902773407317582e-15 0.0 6.239276865396427 -0.9708550271995018 -22.496031020937068 -5.427826512226491 21.44528108071801 -23.90241610542769 93.23978488849369 -36.87704246293259 152.55675651980926 0.0 0.0 3.1805546814635168e-15 -21.585710645403832 3.9458383679057603 42.93077490437603 0.0013501776218287638 -0.015575227198333695 -0.0326623721528638 -63.48208774557636 -45.57359112022601 -137.557062034518 1.5902773407317584e-15 4.4139062980501586e-32 3.1805546814635168e-15
-3.799999952316284 5.5 33.79999923706055 -1.636576721214665 -1.6359057072435697 -1.6057661978324984 0.04157419117809957 -2.421525441194851 0.05966113449910081 -7.891209195991695e-10 8.362017316007166e-07 3.3155166616703924 90.00509370844527 -2.3348339715997874 165.46937964175038 -1.829743838225783e-06 8.303768443503384e-07 38.28990067437766 -3.7948548279627347e-06 22.576125338088946 30.21586138344652 6.3611093629270335e-15 -3.531125038440127e-31 -6.3611093629270335e-15 -90.71480633609139 6.170221455739161 -161.66523202858588 9.31152395695727e-08 -3.4897840032480702e-06 -40.748702014044675 179.9999971211656 -70.14466288785228 150.10764736209694 6.361109362927033e-15 1.7655625192200634e-31 3.1805546814635164e-15 6.239426596066651 -0.969888816135614 -22.48719146608558 -5.427826512226491 21.44528108071801 -23.90241610542769 93.43260045111793 -36.90443279111387 152.70102987226124 0.0 0.0 -3.180554681463516e-15 -21.65803609397131 3.930549592679705 43.58901773483538 -0.059241984739520165 -0.11533738589968964 -0.24529396408619605 -63.50311491248589 -45.1596966388463 -138.10132605625918 -6.3611093629270335e-15 6.3611093629270335e-15 3.531125038440127e-31
-3.799999952316284 5.5 33.79999923706055 -1.6365767772689122 -1.635905813111497 -1.5968750499538031 0.04119830044458082 -2.421531317253127 0.05892107566138783 -7.03924994030371e-08 3.937545589030058e-07 3.3073575983834145 90.08134863030858 -2.0408088991580215 165.47229128276066 -7.194348703453898e-07 7.509931090858593e-07 38.29112702501536 -5.7301190977338225e-06 21.64435290449216 32.28397246936841 1.5902773407317588e-15 0.0 0.0 -90.62199634895589 5.969785236643888 -161.94849190310094 -7.411325070317768e-07 6.564297452298696e-07 -40.38457311390818 179.99999036953773 -71.86684528117951 148.2710010470011 -4.4139062980501586e-32 -1.5902773407317584e-15 -3.1805546814635168e-15 6.242682042965325 -1.1090995893847821 -22.30886518886318 -5.472373092743635 21.701605407754577 -24.15205579503316 93.58419669694456 -36.816176003329325 152.7957450137463 0.0 0.0 -3.180554681463516e-15 -21.52693429584858 3.805035833987187 42.62619039426569 0.018854093570288014 0.16576949558250412 0.34815473038140865 -63.49553940694073 -45.05231937691129 -137.86299567281054 -3.1805546814635176e-15 6.361109362927035e-15 1.5902773407317592e-15
-3.799999952316284 5.5 33.70000076293945 -1.636576704419378 -1.0907753920529848 -1.6187271855846335 0.062751555682302 -3.1501309485191373 0.07791750968927821 8.874005809062953e-08 -3.286318858114693e-07 3.458549064481684 90.0783767663399 -2.1966541514012996 165.28860872222904 -2.3301728734761247e-06 5.390430896511423e-07 38.37925544921723 2.4706420329484598e-06 22.11772870520446 30.91484464559863 -3.1805546814635168e-15 6.3611093629270335e-15 1.7655625192200634e-31 -90.72765854444273 6.336449216439072 -161.53368271764938 1.2729279688768823e-06 1.2034846867030942e-06 -40.77568747764295 -179.99999837661423 -66.44051538072979 148.77612557335908 -4.4139062980501586e-32 1.5902773407317584e-15 3.1805546814635168e-15 6.25992843918279 -1.648395689094798 -22.88187198048387 -5.731025690117973 21.637759859661745 -23.80325476815266 93.56789134966513 -36.46519330654549 152.7283289296208 3.1805546814635168e-15 8.827812596100317e-32 3.1805546814635168e-15 -21.630564645141828 3.4192742948755526 44.10691880180858 -0.06066055183661914 -0.11459781677265941 -0.2409540782907527 -63.81708738197868 -44.52200044475964 -138.48219197630672 -2.648343778830095e-31 6.3611093629270335e-15 4.770832022195275e-15
-3.799999952316284 5.5 33.70000076293945 -1.6365767887950735 -1.6359264746075568 -1.2701608390692658 0.027380601240865728 -2.4216985046241946 0.05795472278829244 1.2295606839470342e-07 -3.45228442141913e-07 3.1303451073108968 90.0792802618857 -2.1978645767868032 165.47242667909273 -2.3301728734761247e-06 5.390430896511423e-07 38.37925544921723 4.7227356576054013e-07 19.321454140972502 30.482853829450438 6.3611093629270335e-15 3.531125038440127e-31 6.3611093629270335e-15 -90.72030280854241 6.360980508581984 -161.7176971931892 1.8562688709878683e-06 -1.756885018958506e-06 -40.61264734524378 179.99999959647107 -70.3021648344867 150.15464928346077 0.0 0.0 3.1805546814635168e-15 6.2362935724674005 -1.144582426628002 -22.63371739227784 -5.414936484970185 21.588900162043952 -24.089780734621524 93.30899856105965 -36.373466483433944 152.88968809966175 0.0 0.0 0.0 -21.5601737055272 3.9295097168560145 43.117790107832306 -0.00030624066739444125 0.1640559824617009 0.341600434046536 -64.69515405218267 -44.84410128250978 -138.99225158103772 -1.5902773407317588e-15 4.4139062980501586e-32 -3.1805546814635176e-15
-3.799999952316284 5.5 33.70000076293945 -1.636576749801262 -1.6359264833791034 -1.5961249389642287 0.04116572448885238 -2.4215041830165536 0.07351355000744765 -2.0212505478080852e-08 2.745663021167001e-07 3.2920146375758503 90.23664351087449 -1.4417288222127393 165.47701346574522 1.3703222252178745e-07 -1.430032531836057e-07 37.87493412222588 2.124610532045695e-06 23.911532117085535 30.821710662502827 1.1131941385122309e-14 0.0 0.0 -90.70967013892118 6.237191096924172 -161.93917390134268 -7.843681490271768e-07 -1.6093401094359024e-07 -40.3941854751149 -179.99999346765472 -66.72215502327221 148.85404534847976 6.3611093629270335e-15 3.531125038440127e-31 6.3611093629270335e-15 6.242667476168116 -1.1091551083552886 -22.30962193148738 -5.414936484970185 21.588900162043952 -24.089780734621524 93.30899856105965 -36.373466483433944 152.88968809966175 0.0 0.0 0.0 -21.772802443712788 3.6548985103889695 43.042085883745806 0.21657929643814866 0.009614866830442164 0.020218621016535546 -63.37670509846954 -45.41006912949453 -137.5835728544605 4.770832022195274e-15 7.95138670365879e-16 -1.5902773407317582e-15
-3.799999952316284 5.5 33.599998474121094 -2.1816405869487063 -1.090429687210954 -1.6197689157945778 0.7913849457122997 -3.1303293979094864 0.08654442081249526 -9.386439416849648e-08 -1.733312191820327e-08 3.4505281001902115 90.05310347414785 -1.5863275379082742 165.4964461709206 1.3024995148468862e-06 1.173626883822366e-06 37.49832645958538 -3.1144636621503095e-06 23.803620099071402 30.97532619072111 1.590277340731758e-15 6.3611093629270335e-15 6.3611093629270335e-15 -90.91941914879249 6.357054324838448 -161.52632367614584 1.8562688709878683e-06 -1.756885018958506e-06 -40.61264734524378 179.99999430734226 -70.30202659731819 150.15459525323305 0.0 0.0 0.0 6.666345497692888 -1.6386193663632598 -22.52071279107833 -5.400627034693128 21.618796011353677 -23.727239273564077 93.31151220324534 -36.432533812904474 152.48662606064258 0.0 0.0 -3.1805546814635164e-15 -21.076546351544216 3.164554050809424 43.6770617681838 0.1215823703703201 0.088028657874141 0.18508576366466184 -64.44117332196193 -44.47684030651448 -139.1388328723171 0.0 0.0 0.0
